<?xml version="1.0" standalone="no"?>
<!DOCTYPE svg PUBLIC "-//W3C//DTD SVG 20010904//EN"
 "http://www.w3.org/TR/2001/REC-SVG-20010904/DTD/svg10.dtd">
<svg version="1.0" xmlns="http://www.w3.org/2000/svg"
 width="300.000000pt" height="291.000000pt" viewBox="0 0 300.000000 291.000000"
 preserveAspectRatio="xMidYMid meet">

<g transform="translate(0.000000,291.000000) scale(0.100000,-0.100000)"
fill="#000000" stroke="none">
<path d="M1285 2903 c-265 -24 -532 -149 -706 -329 -121 -126 -186 -238 -235
-400 -42 -140 -45 -358 -7 -511 9 -40 -13 -25 -66 44 -89 115 -141 254 -141
378 0 76 -10 64 -48 -55 -42 -132 -62 -255 -62 -385 0 -276 88 -509 274 -728
46 -55 53 -67 37 -67 -55 0 -195 77 -276 151 -25 23 -45 35 -45 28 0 -8 20
-62 43 -120 186 -455 574 -776 1063 -881 157 -33 411 -33 568 0 449 96 818
379 1016 779 91 184 137 362 149 573 l7 115 73 -74 74 -74 -8 88 c-21 256
-132 512 -288 665 -31 30 -57 59 -57 63 0 10 124 -3 180 -19 24 -7 46 -11 49
-9 10 10 -162 166 -242 219 -355 236 -810 263 -1026 61 -48 -45 -83 -101 -96
-156 -6 -24 -3 -27 29 -33 42 -8 122 -77 154 -135 29 -51 17 -53 -29 -5 -70
74 -180 103 -255 68 -43 -21 -101 -85 -125 -140 -20 -45 -36 -148 -31 -197 l3
-27 42 24 c72 42 148 58 250 54 85 -3 96 -6 139 -35 123 -86 122 -262 -2 -397
-90 -98 -211 -148 -355 -149 -158 -1 -284 52 -400 168 -117 117 -181 253 -205
438 -21 154 14 344 94 513 105 221 247 369 447 464 46 22 77 39 69 38 -8 -1
-33 -3 -55 -5z m725 -593 c12 -8 9 -10 -12 -10 -45 0 -78 -17 -78 -40 0 -54
-49 -82 -99 -57 -15 7 -43 12 -63 9 -29 -3 -39 1 -52 19 -23 33 -20 39 12 27
22 -9 42 -4 117 25 90 36 147 45 175 27z m-492 -242 c7 -7 12 -18 12 -25 0
-11 -5 -11 -21 -2 -12 6 -30 9 -40 6 -24 -6 -25 9 -1 22 23 14 36 13 50 -1z"/>
</g>
</svg>
